<?xml version="1.0" encoding="UTF-8" standalone="no"?>
<!-- Created with Inkscape (http://www.inkscape.org/) -->

<svg
   width="209.66734mm"
   height="104.96313mm"
   viewBox="0 0 209.66736 104.96313"
   version="1.1"
   id="svg5"
   xmlns="http://www.w3.org/2000/svg"
   xmlns:svg="http://www.w3.org/2000/svg">
  <defs
     id="defs2" />
  <g
     id="layer3"
     style="display:none">
    <path
       style="display:inline;fill:none;stroke:#000000;stroke-width:1;stroke-linecap:butt;stroke-linejoin:miter;stroke-miterlimit:4;stroke-dasharray:none;stroke-opacity:1"
       d="M 78.159193,48.431919 117.40179,70.789843"
       id="path3096-3"
       transform="translate(-3.8200513,-4.2478129)" />
  </g>
  <g
     id="layer2"
     style="display:inline">
    <g
       aria-label="Juleana"
       id="text4511"
       style="font-size:45.8611px;line-height:1.25;letter-spacing:-2.64583px;stroke-width:0.264583;fill:#ffffff">
      <path
         d="m 64.713573,68.269431 h 7.83759 v 23.445591 q 0,1.948201 -0.71658,3.582899 -0.716579,1.634697 -2.149739,2.821532 -1.410766,1.186835 -3.560505,1.858629 -2.149739,0.671798 -5.038451,0.671798 -1.612304,0 -2.978284,-0.29112 -1.36598,-0.26871 -2.552815,-0.716575 Q 54.390347,99.17193 53.360264,98.589709 52.33018,97.985094 51.38967,97.38048 l 2.194525,-2.799139 q 0.492648,0.470255 1.186835,0.985297 0.71658,0.492649 1.567518,0.895725 0.873331,0.403076 1.858628,0.671793 0.985298,0.246324 2.060167,0.246324 2.060167,0 3.247002,-1.074869 1.209228,-1.097263 1.209228,-2.933498 z"
         style="font-family:'Tamil MN';-inkscape-font-specification:'Tamil MN';fill:#ffffff"
         id="path1001" />
      <path
         d="m 83.453168,76.129414 v 16.929195 q 0,0.71658 0.268718,1.343587 0.29111,0.604614 0.761365,1.052476 0.492649,0.447863 1.119656,0.71658 0.649401,0.268717 1.36598,0.268717 0.403076,0 0.918118,-0.223931 0.515042,-0.223931 1.030083,-0.627007 0.537435,-0.403076 1.030083,-0.940511 0.515042,-0.537434 0.918118,-1.186835 V 76.129414 h 7.300156 v 24.027816 h -7.300156 v -2.239315 q -1.433159,1.231621 -3.067857,1.970594 -1.612304,0.716581 -3.157429,0.716581 -1.791449,0 -3.336574,-0.58222 -1.545125,-0.604616 -2.687174,-1.612306 -1.142049,-1.030084 -1.791449,-2.396064 -0.6494,-1.388373 -0.6494,-2.955891 V 76.129414 Z"
         style="font-family:'Tamil MN';-inkscape-font-specification:'Tamil MN';fill:#ffffff"
         id="path1003" />
      <path
         d="m 108.5748,100.15723 h -7.23298 V 66.455589 l 7.23298,-2.015381 z"
         style="font-family:'Tamil MN';-inkscape-font-specification:'Tamil MN';fill:#ffffff"
         id="path1005" />
      <path
         d="m 122.99252,100.69466 q -2.5752,0 -4.83691,-0.94051 -2.23931,-0.962903 -3.91879,-2.575208 -1.67949,-1.612304 -2.64239,-3.73965 -0.9629,-2.149739 -0.9629,-4.523409 0,-2.843926 0.89572,-5.262382 0.89572,-2.44085 2.53042,-4.209906 1.6347,-1.791449 3.94119,-2.799139 2.30649,-1.00769 5.12802,-1.00769 2.50803,0 4.59059,0.806152 2.10495,0.783759 3.5829,2.194525 1.50034,1.388373 2.32888,3.269395 0.82855,1.858628 0.82855,4.008368 h -16.66048 q 0.0672,1.992987 0.55983,3.806829 0.51504,1.813842 1.36598,3.202215 0.85094,1.388374 1.99299,2.216919 1.14205,0.806152 2.53042,0.806152 1.20923,0 2.37367,-0.403076 1.16444,-0.425469 2.14974,-1.142049 0.9853,-0.738973 1.70188,-1.701877 0.71657,-0.962904 1.05247,-2.037773 l 3.73965,0.559828 q -0.55983,1.948201 -1.81384,3.672471 -1.23162,1.724269 -2.88871,3.02307 -1.65709,1.276408 -3.62769,2.037774 -1.9482,0.738971 -3.94119,0.738971 z m 3.09025,-17.26509 q -0.0896,-1.07487 -0.47025,-1.948201 -0.35829,-0.873332 -0.94051,-1.500339 -0.55983,-0.627007 -1.3212,-0.962904 -0.73897,-0.35829 -1.6123,-0.35829 -0.67179,0 -1.32119,0.335897 -0.6494,0.335897 -1.18684,0.962904 -0.53743,0.627007 -0.91812,1.522732 -0.35829,0.873331 -0.47025,1.948201 z"
         style="font-family:'Tamil MN';-inkscape-font-specification:'Tamil MN';fill:#ffffff"
         id="path1007" />
      <path
         d="m 149.00988,87.729048 q -1.05247,0.447862 -2.12734,1.052476 -1.07487,0.582221 -1.9482,1.298801 -0.87333,0.694186 -1.43316,1.500339 -0.53744,0.783759 -0.53744,1.65709 0,0.694187 0.17915,1.321194 0.17914,0.604614 0.49265,1.074869 0.3135,0.447863 0.69418,0.71658 0.40308,0.268717 0.85094,0.268717 0.87333,0 1.79145,-0.537434 0.94051,-0.559828 2.03777,-1.388373 z m 7.32255,12.428182 h -7.32255 v -1.925811 q -0.60461,0.515041 -1.18683,0.940511 -0.58222,0.425469 -1.2988,0.761365 -0.69419,0.313505 -1.58991,0.492645 -0.89573,0.17915 -2.12735,0.17915 -1.65709,0 -3.00068,-0.47026 -1.32119,-0.470252 -2.2617,-1.298797 -0.91812,-0.850939 -1.41077,-1.992987 -0.49265,-1.142049 -0.49265,-2.463243 0,-1.388373 0.51505,-2.485636 0.53743,-1.119656 1.43316,-2.01538 0.91811,-0.895725 2.12734,-1.612304 1.23162,-0.71658 2.62,-1.298801 1.41076,-0.582221 2.9111,-1.07487 1.50034,-0.492648 2.95589,-0.962904 l 0.80615,-0.179144 V 82.3547 q 0,-1.142049 -0.24632,-1.948201 -0.22393,-0.806152 -0.6494,-1.2988 -0.40308,-0.515042 -1.00769,-0.738973 -0.58222,-0.223931 -1.32119,-0.223931 -0.87334,0 -1.45556,0.223931 -0.58222,0.223931 -0.94051,0.627007 -0.35829,0.380683 -0.51504,0.895725 -0.15675,0.515041 -0.15675,1.097262 0,0.694187 -0.15675,1.321194 -0.13436,0.627007 -0.51504,1.119656 -0.35829,0.470255 -1.0077,0.761366 -0.627,0.29111 -1.63469,0.29111 -0.76137,0 -1.41077,-0.223931 -0.62701,-0.246324 -1.07487,-0.6494 -0.44786,-0.42547 -0.71658,-0.985297 -0.24632,-0.582221 -0.24632,-1.231622 0,-1.254014 0.85094,-2.306491 0.85093,-1.074869 2.28409,-1.858628 1.45556,-0.783759 3.33658,-1.209228 1.90341,-0.447863 4.00837,-0.447863 2.5752,0 4.43383,0.470256 1.88102,0.470255 3.09025,1.321194 1.20923,0.850938 1.79145,2.060166 0.58222,1.209228 0.58222,2.709567 z"
         style="font-family:'Tamil MN';-inkscape-font-specification:'Tamil MN';fill:#ffffff"
         id="path1009" />
      <path
         d="m 174.89288,83.698287 q 0,-0.918118 -0.20154,-1.634697 -0.20153,-0.71658 -0.53743,-1.186835 -0.3359,-0.492649 -0.78376,-0.738973 -0.42547,-0.246324 -0.89572,-0.246324 -0.47026,0 -1.09727,0.201538 -0.60461,0.179145 -1.2764,0.537434 -0.6718,0.335897 -1.36598,0.828546 -0.69419,0.492648 -1.34359,1.097262 v 17.600992 h -7.32255 V 76.129414 h 7.32255 v 1.881022 q 1.67948,-1.231621 3.60529,-1.791449 1.92581,-0.582221 3.85162,-0.582221 1.47794,0 2.79914,0.582221 1.34358,0.559828 2.32888,1.567518 1.00769,0.985297 1.58991,2.328884 0.60461,1.321194 0.60461,2.843925 v 17.197916 h -7.27776 z"
         style="font-family:'Tamil MN';-inkscape-font-specification:'Tamil MN';fill:#ffffff"
         id="path1011" />
      <path
         d="m 197.03623,87.729048 q -1.05248,0.447862 -2.12735,1.052476 -1.07487,0.582221 -1.9482,1.298801 -0.87333,0.694186 -1.43316,1.500339 -0.53743,0.783759 -0.53743,1.65709 0,0.694187 0.17914,1.321194 0.17915,0.604614 0.49265,1.074869 0.3135,0.447863 0.69419,0.71658 0.40307,0.268717 0.85094,0.268717 0.87333,0 1.79144,-0.537434 0.94052,-0.559828 2.03778,-1.388373 z m 7.32255,12.428182 h -7.32255 v -1.925811 q -0.60462,0.515041 -1.18684,0.940511 -0.58222,0.425469 -1.2988,0.761365 -0.69418,0.313505 -1.58991,0.492645 -0.89572,0.17915 -2.12734,0.17915 -1.6571,0 -3.00068,-0.47026 -1.3212,-0.470252 -2.26171,-1.298797 -0.91811,-0.850939 -1.41076,-1.992987 -0.49265,-1.142049 -0.49265,-2.463243 0,-1.388373 0.51504,-2.485636 0.53744,-1.119656 1.43316,-2.01538 0.91812,-0.895725 2.12735,-1.612304 1.23162,-0.71658 2.61999,-1.298801 1.41077,-0.582221 2.9111,-1.07487 1.50034,-0.492648 2.9559,-0.962904 l 0.80615,-0.179144 V 82.3547 q 0,-1.142049 -0.24633,-1.948201 -0.22393,-0.806152 -0.6494,-1.2988 -0.40307,-0.515042 -1.00769,-0.738973 -0.58222,-0.223931 -1.32119,-0.223931 -0.87333,0 -1.45555,0.223931 -0.58222,0.223931 -0.94051,0.627007 -0.35829,0.380683 -0.51505,0.895725 -0.15675,0.515041 -0.15675,1.097262 0,0.694187 -0.15675,1.321194 -0.13436,0.627007 -0.51504,1.119656 -0.35829,0.470255 -1.00769,0.761366 -0.62701,0.29111 -1.6347,0.29111 -0.76136,0 -1.41076,-0.223931 -0.62701,-0.246324 -1.07487,-0.6494 -0.44787,-0.42547 -0.71658,-0.985297 -0.24633,-0.582221 -0.24633,-1.231622 0,-1.254014 0.85094,-2.306491 0.85094,-1.074869 2.2841,-1.858628 1.45555,-0.783759 3.33657,-1.209228 1.90342,-0.447863 4.00837,-0.447863 2.57521,0 4.43384,0.470256 1.88102,0.470255 3.09025,1.321194 1.20922,0.850938 1.79145,2.060166 0.58222,1.209228 0.58222,2.709567 z"
         style="font-family:'Tamil MN';-inkscape-font-specification:'Tamil MN';fill:#ffffff"
         id="path1013" />
    </g>
    <path
       style="display:inline;fill:none;stroke:#fffffe;stroke-width:1.00074;stroke-linecap:butt;stroke-linejoin:miter;stroke-miterlimit:4;stroke-dasharray:none;stroke-opacity:1"
       d="M 74.642682,40.320073 209.56102,69.660303"
       id="path3096-5" />
  </g>
  <g
     id="layer1"
     transform="translate(-3.8200512,-4.247813)"
     style="display:inline">
    <circle
       style="font-variation-settings:normal;opacity:1;fill:none;fill-opacity:1;fill-rule:evenodd;stroke:#fffffe;stroke-width:1;stroke-linecap:butt;stroke-linejoin:miter;stroke-miterlimit:4;stroke-dasharray:none;stroke-dashoffset:0;stroke-opacity:1;stop-color:#000000;stop-opacity:1"
       id="path2228"
       cx="31.320051"
       cy="66.375282"
       r="27" />
    <circle
       style="font-variation-settings:normal;fill:none;fill-opacity:1;fill-rule:evenodd;stroke:#fffffe;stroke-width:1;stroke-linecap:butt;stroke-linejoin:miter;stroke-miterlimit:4;stroke-dasharray:none;stroke-dashoffset:0;stroke-opacity:1;stop-color:#000000"
       id="path2228-2"
       cx="-53.782318"
       cy="-67.712936"
       r="27"
       transform="rotate(150)" />
    <circle
       style="fill:#389826;fill-opacity:1;fill-rule:evenodd;stroke-width:0.271583"
       id="path239"
       cx="20.791399"
       cy="57.799713"
       r="10.264584" />
    <ellipse
       style="fill:#cb3c33;fill-opacity:1;fill-rule:evenodd;stroke-width:0.271582"
       id="path239-6"
       cx="29.275663"
       cy="79.081497"
       rx="10.2645"
       ry="10.264584" />
    <circle
       style="fill:#389826;fill-opacity:1;fill-rule:evenodd;stroke-width:0.271583"
       id="path239-2"
       cx="64.310974"
       cy="76.288483"
       r="10.264584"
       transform="rotate(-30)" />
    <ellipse
       style="fill:#cb3c33;fill-opacity:1;fill-rule:evenodd;stroke-width:0.271582"
       id="path239-6-8"
       cx="55.826706"
       cy="55.006737"
       rx="10.2645"
       ry="10.264584"
       transform="rotate(-30)" />
    <path
       style="fill:none;stroke:#fffffe;stroke-width:1;stroke-linecap:butt;stroke-linejoin:miter;stroke-miterlimit:4;stroke-dasharray:4, 2;stroke-dashoffset:0;stroke-opacity:1"
       d="m 53.977047,64.626543 c 1.896622,0.473878 3.909735,0.473878 5.806357,0 3.731608,-0.932357 6.931859,-3.777064 8.290967,-7.37526 0.645911,-1.710029 0.892005,-3.569642 0.713137,-5.388819"
       id="path2815" />
    <path
       style="fill:none;stroke:#fffffe;stroke-width:1;stroke-linecap:butt;stroke-linejoin:miter;stroke-miterlimit:4;stroke-dasharray:none;stroke-opacity:1"
       d="m 45.824023,64.647305 7.853886,44.476685"
       id="path3096" />
    <ellipse
       style="fill:#9558b2;fill-opacity:1;fill-rule:evenodd;stroke-width:0.271582"
       id="path239-6-7"
       cx="44.204033"
       cy="60.897579"
       rx="10.2645"
       ry="10.264584" />
    <ellipse
       style="fill:#9558b2;fill-opacity:1;fill-rule:evenodd;stroke-width:0.271582"
       id="path239-6-7-4"
       cx="40.898346"
       cy="73.190628"
       rx="10.2645"
       ry="10.264584"
       transform="rotate(-30)" />
  </g>
</svg>
